# File created by Blade
# Date/Time:  Fri Jan 16 19:00:24 2015
# Frame Rate: 120.000 fps
#------------------------------------------------------
:FULLY-SPECIFIED
:DEGREES
1429
root 17.781631 35.695086 -21.654147 -185.547490 0.723757 -178.030491
Spine 3.724928 6.598142 -4.242932
Head 4.804384 -7.845486 9.428290
LeftShoulder -9.336966 -26.515388 12.290030
LeftArm -2.542230 -5.997667 -14.003357
LeftForeArm -2.687154 -0.000000 7.273683
LeftHand -7.203847 -0.000000 4.064476
LeftHandThumb1 -26.253704 0.000000 33.147579
RightShoulder -11.823220 -7.747312 2.572030
RightArm 2.258068 50.029835 30.980381
RightForeArm -29.399931 -0.000000 36.424587
RightHand -14.154605 -0.000000 -0.802517
RightHandThumb1 -24.326973 -0.000000 -32.862282
LeftUpLeg 8.911860 10.092066 -6.257045
LeftLeg -3.368909 -0.000000 0.000000
LeftFoot -19.089543 27.207651 -10.557807
LeftToeBase 21.189234 -0.000000 -0.000000
RightUpLeg -46.508001 10.427474 6.293560
RightLeg 91.048783 -0.000000 -0.000000
RightFoot 26.784822 -39.766331 -13.619623
RightToeBase 22.206563 -0.000000 -0.000000
1430
root 17.766245 35.695662 -21.682270 -185.413570 0.690964 -178.081260
Spine 3.427083 6.591299 -4.300642
Head 4.978077 -7.878829 9.365892
LeftShoulder -9.384029 -26.460960 12.281852
LeftArm -2.531198 -6.024547 -14.023589
LeftForeArm -2.675986 -0.000000 7.259522
LeftHand -7.164685 -0.000000 4.080349
LeftHandThumb1 -26.253704 0.000000 33.147579
RightShoulder -11.870664 -7.771645 2.612670
RightArm 2.279052 49.943502 30.993259
RightForeArm -29.390831 -0.000000 36.402390
RightHand -14.042133 0.000000 -0.745186
RightHandThumb1 -24.326973 -0.000000 -32.862282
LeftUpLeg 8.815159 10.232469 -6.297312
LeftLeg -3.352724 -0.000000 0.000000
LeftFoot -19.187437 26.958945 -10.772369
LeftToeBase 21.227058 -0.000000 -0.000000
RightUpLeg -45.422399 10.379253 6.168302
RightLeg 90.571012 -0.000000 -0.000000
RightFoot 26.692044 -39.731822 -13.520417
RightToeBase 22.387443 -0.000000 -0.000000
1431
root 17.750378 35.694631 -21.707887 -185.275986 0.628306 -178.124608
Spine 3.137932 6.537859 -4.347173
Head 5.110944 -7.901434 9.311972
LeftShoulder -9.457953 -26.387509 12.294489
LeftArm -2.531758 -6.013223 -14.068577
LeftForeArm -2.684464 -0.000000 7.279883
LeftHand -7.146337 0.000000 4.088617
LeftHandThumb1 -26.253704 0.000000 33.147579
RightShoulder -11.888749 -7.811897 2.625080
RightArm 2.301860 49.866140 31.027702
RightForeArm -29.430492 -0.000000 36.352281
RightHand -14.108301 0.000000 -0.930543
RightHandThumb1 -24.326973 -0.000000 -32.862282
LeftUpLeg 8.721198 10.220682 -6.353162
LeftLeg -3.330844 -0.000000 0.000000
LeftFoot -19.219176 26.809910 -10.883684
LeftToeBase 21.462619 -0.000000 -0.000000
RightUpLeg -44.362121 10.295991 6.059305
RightLeg 90.099171 -0.000000 -0.000000
RightFoot 26.716474 -39.789832 -13.440340
RightToeBase 21.953027 -0.000000 -0.000000
1432
root 17.727069 35.691608 -21.725090 -185.098069 0.532694 -178.214150
Spine 2.823073 6.466989 -4.430157
Head 5.244716 -7.932956 9.210572
LeftShoulder -9.500355 -26.346595 12.280116
LeftArm -2.538899 -6.059732 -14.102972
LeftForeArm -2.609408 -0.000000 7.274426
LeftHand -7.128194 -0.000000 4.118490
LeftHandThumb1 -26.253704 0.000000 33.147579
RightShoulder -11.888820 -7.868007 2.621963
RightArm 2.271633 49.887581 31.025511
RightForeArm -29.343834 -0.000000 36.313849
RightHand -13.995975 -0.000000 -0.746165
RightHandThumb1 -24.326973 -0.000000 -32.862282
LeftUpLeg 8.541448 10.216948 -6.477657
LeftLeg -3.270936 -0.000000 0.000000
LeftFoot -19.249375 26.650319 -10.940878
LeftToeBase 21.455911 -0.000000 -0.000000
RightUpLeg -43.387275 10.181575 5.864227
RightLeg 89.684416 -0.000000 -0.000000
RightFoot 26.709140 -39.725488 -13.330297
RightToeBase 22.330529 -0.000000 -0.000000
1433
root 17.704026 35.688301 -21.743839 -184.921253 0.426857 -178.311381
Spine 2.510909 6.413739 -4.527426
Head 5.352437 -7.984126 9.134447
LeftShoulder -9.528694 -26.309320 12.271845
LeftArm -2.547607 -6.076065 -14.147094
LeftForeArm -2.532591 0.000000 7.296256
LeftHand -7.123578 -0.000000 4.123870
LeftHandThumb1 -26.253704 0.000000 33.147579
RightShoulder -11.923814 -7.922561 2.605212
RightArm 2.247967 49.913539 31.065569
RightForeArm -29.387537 0.000000 36.288169
RightHand -13.965350 -0.000000 -0.680287
RightHandThumb1 -24.326973 -0.000000 -32.862282
LeftUpLeg 8.354219 10.223252 -6.614571
LeftLeg -3.189873 -0.000000 0.000000
LeftFoot -19.331186 26.484317 -11.091164
LeftToeBase 21.629072 -0.000000 -0.000000
RightUpLeg -42.432350 10.052841 5.667866
RightLeg 89.326840 -0.000000 -0.000000
RightFoot 26.775964 -39.625008 -13.307647
RightToeBase 22.081428 -0.000000 -0.000000
1434
root 17.687328 35.686722 -21.772597 -184.784669 0.324655 -178.372284
Spine 2.221460 6.385533 -4.593156
Head 5.468312 -8.053748 9.068209
LeftShoulder -9.547883 -26.233258 12.261856
LeftArm -2.529960 -6.123362 -14.197708
LeftForeArm -2.399005 -0.000000 7.323148
LeftHand -7.170714 -0.000000 4.082135
LeftHandThumb1 -26.253704 0.000000 33.147579
RightShoulder -12.030489 -8.032974 2.641289
RightArm 2.361620 49.861030 31.143194
RightForeArm -29.312032 0.000000 36.203862
RightHand -13.961006 -0.000000 -0.777757
RightHandThumb1 -24.326973 -0.000000 -32.862282
LeftUpLeg 8.234349 10.262634 -6.682133
LeftLeg -3.106753 -0.000000 0.000000
LeftFoot -19.318295 26.244143 -11.037792
LeftToeBase 21.679462 -0.000000 -0.000000
RightUpLeg -41.403978 9.963397 5.539748
RightLeg 88.934816 -0.000000 -0.000000
RightFoot 26.890644 -39.666609 -13.367471
RightToeBase 22.705323 -0.000000 -0.000000
1435
root 17.676271 35.686156 -21.802222 -184.685095 0.216828 -178.419907
Spine 1.989362 6.355641 -4.661750
Head 5.546548 -8.123352 9.041218
LeftShoulder -9.564382 -26.201090 12.279815
LeftArm -2.534742 -6.160914 -14.250773
LeftForeArm -2.290815 -0.000000 7.339316
LeftHand -7.165568 -0.000000 4.036763
LeftHandThumb1 -26.253704 0.000000 33.147579
RightShoulder -12.138921 -8.077228 2.690199
RightArm 2.461952 49.905835 31.226239
RightForeArm -29.329198 -0.000000 36.131930
RightHand -13.899238 0.000000 -0.781336
RightHandThumb1 -24.326973 -0.000000 -32.862282
LeftUpLeg 8.150246 10.309358 -6.736166
LeftLeg -3.036544 -0.000000 0.000000
LeftFoot -19.376182 26.052120 -11.127581
LeftToeBase 21.766168 -0.000000 -0.000000
RightUpLeg -40.360317 9.835977 5.467408
RightLeg 88.536988 -0.000000 -0.000000
RightFoot 27.013304 -39.819053 -13.209385
RightToeBase 22.417431 -0.000000 -0.000000
1436
root 17.667952 35.685282 -21.832721 -184.605826 0.098582 -178.450252
Spine 1.786223 6.319584 -4.715220
Head 5.606819 -8.198519 9.015595
LeftShoulder -9.590846 -26.095496 12.295493
LeftArm -2.501064 -6.251322 -14.315061
LeftForeArm -2.207657 -0.000000 7.341365
LeftHand -7.135365 -0.000000 3.986160
LeftHandThumb1 -26.253704 0.000000 33.147579
RightShoulder -12.170156 -8.084720 2.715027
RightArm 2.357562 49.970222 31.170492
RightForeArm -29.331207 -0.000000 36.068092
RightHand -13.860651 -0.000000 -0.701605
RightHandThumb1 -24.326973 -0.000000 -32.862282
LeftUpLeg 8.102056 10.260485 -6.776225
LeftLeg -2.988165 -0.000000 0.000000
LeftFoot -19.416311 25.922752 -11.214567
LeftToeBase 21.740638 -0.000000 -0.000000
RightUpLeg -39.268235 9.761341 5.408117
RightLeg 88.175868 -0.000000 -0.000000
RightFoot 27.133103 -39.795865 -13.471773
RightToeBase 22.982309 -0.000000 -0.000000
1437
root 17.656553 35.682768 -21.867353 -184.561700 -0.025383 -178.477768
Spine 1.625054 6.262944 -4.745050
Head 5.648077 -8.254731 8.979486
LeftShoulder -9.619824 -26.056590 12.309921
LeftArm -2.513384 -6.203856 -14.359502
LeftForeArm -2.193222 -0.000000 7.350672
LeftHand -7.099361 -0.000000 3.956870
LeftHandThumb1 -26.253704 0.000000 33.147579
RightShoulder -12.209709 -8.176780 2.736177
RightArm 2.389907 50.028819 31.202096
RightForeArm -29.319435 -0.000000 35.982344
RightHand -13.910249 0.000000 -0.761149
RightHandThumb1 -24.326973 -0.000000 -32.862282
LeftUpLeg 8.090900 10.202528 -6.824475
LeftLeg -2.936585 -0.000000 0.000000
LeftFoot -19.476751 25.868685 -11.243105
LeftToeBase 21.719555 -0.000000 -0.000000
RightUpLeg -38.145211 9.653146 5.354806
RightLeg 87.803517 -0.000000 -0.000000
RightFoot 27.128240 -39.997040 -13.248643
RightToeBase 23.039974 -0.000000 -0.000000
1438
root 17.646468 35.680878 -21.901234 -184.551785 -0.147253 -178.511512
Spine 1.526321 6.219420 -4.788585
Head 5.640287 -8.305328 8.978190
LeftShoulder -9.656732 -25.994582 12.323758
LeftArm -2.485944 -6.217300 -14.407908
LeftForeArm -2.142943 -0.000000 7.330209
LeftHand -7.078807 -0.000000 3.936467
LeftHandThumb1 -26.253704 0.000000 33.147579
RightShoulder -12.256916 -8.232954 2.781414
RightArm 2.394036 50.050683 31.178162
RightForeArm -29.186196 0.000000 35.872488
RightHand -13.926440 -0.000000 -0.741722
RightHandThumb1 -24.326973 -0.000000 -32.862282
LeftUpLeg 8.106703 10.120167 -6.871136
LeftLeg -2.884023 -0.000000 0.000000
LeftFoot -19.535015 25.818056 -11.303908
LeftToeBase 21.737881 -0.000000 -0.000000
RightUpLeg -37.014495 9.540284 5.329895
RightLeg 87.435216 -0.000000 -0.000000
RightFoot 27.390253 -40.119743 -13.273296
RightToeBase 22.478614 -0.000000 -0.000000
